# xmcd
#
# Track frame offsets: 
#        150
#        19067
#        31626
#        52741
#        73770
#        88090
#        105856
#        131228
#        144982
#
# Disc length: 2187 seconds
#
# Revision: 0
# Processed by: cddbd v1.5.2PL0 Copyright (c) Steve Scherf et al.
# Submitted via: ExactAudioCopy v0.95b3
#
DISCID=6b088909
DTITLE=Black Oak Arkansas  - Black Oak Arkansas - [The Knowbody Else] 
DTITLE=1969 - 256K
DYEAR=1900
DGENRE=
TTITLE0=Hold Me Down
TTITLE1=In Your Quiet Home
TTITLE2=Fools and Friends
TTITLE3=No One and the Sun
TTITLE4=Vieux Carre
TTITLE5=Flying Horse Of Louisiana (1969)
TTITLE6=After I Smoke, I Like To Sleep (1969)
TTITLE7=One Life Two Live (1969)
TTITLE8=Black Blues (1969)
EXTD=
EXTT0=
EXTT1=
EXTT2=
EXTT3=
EXTT4=
EXTT5=
EXTT6=
EXTT7=
EXTT8=
PLAYORDER=
